<svg width="25" height="25" viewBox="0 0 25 25" fill="none" xmlns="http://www.w3.org/2000/svg">
<path d="M12.5 0C5.596 0 0 5.596 0 12.5C0 19.404 5.596 25 12.5 25C19.404 25 25 19.404 25 12.5C25 5.596 19.404 0 12.5 0ZM19 13.5H13.5V19C13.5 19.2652 13.3946 19.5196 13.2071 19.7071C13.0196 19.8946 12.7652 20 12.5 20C12.2348 20 11.9804 19.8946 11.7929 19.7071C11.6054 19.5196 11.5 19.2652 11.5 19V13.5H6C5.73478 13.5 5.48043 13.3946 5.29289 13.2071C5.10536 13.0196 5 12.7652 5 12.5C5 12.2348 5.10536 11.9804 5.29289 11.7929C5.48043 11.6054 5.73478 11.5 6 11.5H11.5V6C11.5 5.73478 11.6054 5.48043 11.7929 5.29289C11.9804 5.10536 12.2348 5 12.5 5C12.7652 5 13.0196 5.10536 13.2071 5.29289C13.3946 5.48043 13.5 5.73478 13.5 6V11.5H19C19.2652 11.5 19.5196 11.6054 19.7071 11.7929C19.8946 11.9804 20 12.2348 20 12.5C20 12.7652 19.8946 13.0196 19.7071 13.2071C19.5196 13.3946 19.2652 13.5 19 13.5Z" fill="#81CAF8"/>
</svg>
