<svg width="1339" height="243" viewBox="0 0 1339 243" fill="none" xmlns="http://www.w3.org/2000/svg">
<path d="M252.231 115.372H170.176C166.17 115.372 162.851 118.69 162.851 122.696V148.331C162.851 152.336 166.17 155.655 170.176 155.655V155.655C191.856 155.655 205.28 178.531 187.09 190.327C174.622 198.412 159.521 202.856 142.824 202.233C121.002 201.418 101.258 191.72 87.1628 176.653C82.2753 171.429 86.4596 163.666 93.6138 163.666V163.666C97.6193 163.666 100.938 160.347 100.938 156.342V150.162C100.938 146.157 97.6193 142.838 93.6138 142.838H86.6689C75.7654 142.838 65.7428 135.538 65.3465 124.641V124.641V124.641C64.961 113.461 74.9856 105.53 86.1726 105.53H93.7282C97.7337 105.53 101.053 102.211 101.053 98.2053V92.0254C101.053 88.0199 97.7337 84.7011 93.7282 84.7011V84.7011C84.7874 84.7011 79.2356 75.2806 85.1014 68.533C99.8966 51.5134 121.687 40.7552 146.028 40.7552C171.663 40.7552 194.552 52.7717 209.315 71.4258C211.833 74.6301 216.754 74.9735 219.5 71.8835L239.299 50.7117C241.015 48.8806 241.13 46.0196 239.528 44.0741C216.868 16.7224 182.535 -0.558424 144.083 0.0137873C99.1499 0.790166 59.8131 26.4201 39.4019 63.7136C32.8208 75.7382 21.0321 84.8155 7.32431 84.8155V84.8155C3.31883 84.8155 0 88.1343 0 92.1398V98.2053C0 102.211 3.31883 105.53 7.32431 105.53H12.6565C19.5934 105.53 24.902 111.642 24.7195 118.576V118.576C24.6717 120.296 24.6639 122.011 24.6938 123.721C24.8696 133.758 17.3633 142.838 7.32431 142.838V142.838C3.31883 142.838 0 146.157 0 150.162V156.342C0 160.347 3.31883 163.666 7.32431 163.666V163.666C22.2505 163.666 35.1809 173.262 43.1033 185.913C64.5826 220.209 102.657 242.975 146.028 242.975C235.98 242.975 259.555 165.841 259.555 148.331V122.696C259.555 118.69 256.236 115.372 252.231 115.372Z" fill="#C48A00"/>
<path d="M382.581 194.487H354.456L405.663 49.0328H438.192L489.47 194.487H461.345L422.496 78.8624H421.359L382.581 194.487ZM383.504 137.456H460.209V158.621H383.504V137.456ZM533.202 49.0328V194.487H507.492V49.0328H533.202ZM585.351 49.0328V194.487H559.64V49.0328H585.351ZM681.32 148.607V85.3965H707.03V194.487H682.101V175.098H680.965C678.503 181.206 674.455 186.201 668.82 190.084C663.233 193.967 656.344 195.908 648.152 195.908C641.003 195.908 634.682 194.322 629.189 191.149C623.744 187.93 619.483 183.266 616.405 177.158C613.328 171.003 611.789 163.569 611.789 154.857V85.3965H637.499V150.879C637.499 157.792 639.393 163.285 643.181 167.357C646.969 171.429 651.94 173.465 658.096 173.465C661.884 173.465 665.553 172.541 669.104 170.695C672.655 168.848 675.567 166.102 677.84 162.456C680.16 158.763 681.32 154.146 681.32 148.607ZM733.469 194.487V85.3965H758.398V103.578H759.534C761.523 97.2809 764.932 92.4277 769.761 89.0186C774.638 85.5622 780.201 83.834 786.451 83.834C787.872 83.834 789.458 83.905 791.21 84.047C793.009 84.1417 794.501 84.3074 795.684 84.5442V108.195C794.595 107.816 792.867 107.485 790.5 107.2C788.18 106.869 785.931 106.703 783.753 106.703C779.065 106.703 774.851 107.721 771.111 109.757C767.417 111.746 764.505 114.516 762.375 118.067C760.244 121.618 759.179 125.714 759.179 130.354V194.487H733.469ZM856.569 196.618C845.631 196.618 836.185 194.345 828.231 189.8C820.323 185.207 814.239 178.72 809.978 170.34C805.716 161.912 803.586 151.992 803.586 140.581C803.586 129.36 805.716 119.511 809.978 111.036C814.286 102.513 820.3 95.8841 828.018 91.1493C835.735 86.3671 844.803 83.976 855.219 83.976C861.943 83.976 868.287 85.065 874.253 87.243C880.267 89.3737 885.57 92.6881 890.162 97.1862C894.803 101.684 898.448 107.413 901.1 114.374C903.751 121.287 905.077 129.525 905.077 139.09V146.973H815.66V129.644H880.432C880.385 124.719 879.32 120.34 877.236 116.504C875.153 112.622 872.241 109.568 868.5 107.342C864.807 105.117 860.499 104.004 855.574 104.004C850.319 104.004 845.702 105.283 841.725 107.84C837.748 110.349 834.646 113.663 832.421 117.783C830.243 121.855 829.13 126.329 829.083 131.206V146.334C829.083 152.679 830.243 158.124 832.563 162.669C834.883 167.167 838.126 170.624 842.293 173.039C846.46 175.406 851.337 176.59 856.924 176.59C860.664 176.59 864.05 176.069 867.08 175.027C870.11 173.938 872.738 172.352 874.964 170.269C877.189 168.185 878.87 165.605 880.006 162.527L904.012 165.226C902.497 171.571 899.608 177.11 895.347 181.845C891.133 186.533 885.735 190.179 879.154 192.783C872.572 195.34 865.044 196.618 856.569 196.618ZM974.271 237.669C965.038 237.669 957.107 236.414 950.478 233.905C943.85 231.443 938.523 228.128 934.498 223.962C930.474 219.795 927.68 215.179 926.118 210.112L949.271 204.502C950.313 206.632 951.828 208.739 953.817 210.823C955.805 212.953 958.48 214.705 961.842 216.078C965.251 217.499 969.536 218.209 974.697 218.209C981.989 218.209 988.026 216.433 992.808 212.882C997.59 209.378 999.981 203.602 999.981 195.553V174.885H998.703C997.377 177.537 995.436 180.259 992.879 183.053C990.37 185.846 987.032 188.19 982.865 190.084C978.746 191.978 973.561 192.925 967.311 192.925C958.93 192.925 951.331 190.96 944.513 187.03C937.742 183.053 932.344 177.134 928.319 169.274C924.342 161.367 922.353 151.471 922.353 139.587C922.353 127.608 924.342 117.499 928.319 109.26C932.344 100.974 937.765 94.7004 944.584 90.4391C951.402 86.1304 959.001 83.976 967.382 83.976C973.774 83.976 979.03 85.065 983.149 87.243C987.316 89.3737 990.63 91.9542 993.092 94.9845C995.554 97.9675 997.424 100.785 998.703 103.436H1000.12V85.3965H1025.48V196.263C1025.48 205.591 1023.25 213.308 1018.8 219.416C1014.35 225.524 1008.27 230.093 1000.55 233.124C992.832 236.154 984.072 237.669 974.271 237.669ZM974.484 172.754C979.929 172.754 984.569 171.429 988.405 168.777C992.24 166.126 995.152 162.314 997.14 157.342C999.129 152.371 1000.12 146.405 1000.12 139.445C1000.12 132.579 999.129 126.566 997.14 121.405C995.199 116.244 992.311 112.243 988.476 109.402C984.688 106.514 980.024 105.07 974.484 105.07C968.755 105.07 963.973 106.561 960.138 109.544C956.302 112.527 953.414 116.623 951.473 121.831C949.532 126.992 948.561 132.863 948.561 139.445C948.561 146.121 949.532 151.968 951.473 156.987C953.461 161.959 956.373 165.842 960.209 168.635C964.091 171.381 968.85 172.754 974.484 172.754ZM1099.41 196.618C1088.76 196.618 1079.53 194.274 1071.71 189.587C1063.9 184.899 1057.84 178.342 1053.53 169.914C1049.27 161.485 1047.14 151.637 1047.14 140.368C1047.14 129.099 1049.27 119.227 1053.53 110.752C1057.84 102.276 1063.9 95.6947 1071.71 91.0073C1079.53 86.3198 1088.76 83.976 1099.41 83.976C1110.07 83.976 1119.3 86.3198 1127.11 91.0073C1134.92 95.6947 1140.96 102.276 1145.22 110.752C1149.53 119.227 1151.69 129.099 1151.69 140.368C1151.69 151.637 1149.53 161.485 1145.22 169.914C1140.96 178.342 1134.92 184.899 1127.11 189.587C1119.3 194.274 1110.07 196.618 1099.41 196.618ZM1099.56 176.021C1105.33 176.021 1110.16 174.435 1114.04 171.263C1117.93 168.043 1120.81 163.735 1122.71 158.337C1124.65 152.939 1125.62 146.926 1125.62 140.297C1125.62 133.621 1124.65 127.584 1122.71 122.186C1120.81 116.741 1117.93 112.409 1114.04 109.189C1110.16 105.969 1105.33 104.36 1099.56 104.36C1093.64 104.36 1088.71 105.969 1084.78 109.189C1080.9 112.409 1077.99 116.741 1076.05 122.186C1074.15 127.584 1073.21 133.621 1073.21 140.297C1073.21 146.926 1074.15 152.939 1076.05 158.337C1077.99 163.735 1080.9 168.043 1084.78 171.263C1088.71 174.435 1093.64 176.021 1099.56 176.021ZM1199.22 49.0328V194.487H1173.51V49.0328H1199.22ZM1266.14 196.405C1257.57 196.405 1249.9 194.203 1243.13 189.8C1236.36 185.396 1231.01 179.004 1227.08 170.624C1223.15 162.243 1221.18 152.063 1221.18 140.084C1221.18 127.963 1223.17 117.735 1227.15 109.402C1231.17 101.021 1236.59 94.7004 1243.41 90.4391C1250.23 86.1304 1257.83 83.976 1266.21 83.976C1272.6 83.976 1277.86 85.065 1281.98 87.243C1286.1 89.3737 1289.36 91.9542 1291.78 94.9845C1294.19 97.9675 1296.06 100.785 1297.39 103.436H1298.45V49.0328H1324.24V194.487H1298.95V177.3H1297.39C1296.06 179.951 1294.15 182.769 1291.64 185.752C1289.13 188.687 1285.81 191.197 1281.69 193.28C1277.57 195.363 1272.39 196.405 1266.14 196.405ZM1273.31 175.311C1278.76 175.311 1283.4 173.843 1287.23 170.908C1291.07 167.925 1293.98 163.782 1295.97 158.479C1297.96 153.176 1298.95 146.997 1298.95 139.942C1298.95 132.887 1297.96 126.755 1295.97 121.547C1294.03 116.339 1291.14 112.29 1287.3 109.402C1283.52 106.514 1278.85 105.07 1273.31 105.07C1267.58 105.07 1262.8 106.561 1258.97 109.544C1255.13 112.527 1252.24 116.646 1250.3 121.902C1248.36 127.158 1247.39 133.171 1247.39 139.942C1247.39 146.76 1248.36 152.844 1250.3 158.195C1252.29 163.498 1255.2 167.688 1259.04 170.766C1262.92 173.796 1267.68 175.311 1273.31 175.311Z" fill="black"/>
</svg>
