<svg width="96" height="72" viewBox="0 0 96 72" fill="none" xmlns="http://www.w3.org/2000/svg">
<path fill-rule="evenodd" clip-rule="evenodd" d="M3.5 57.5L5.5 65.5H90L92.5 57.5H3.5Z" fill="#C3E5FE"/>
<path d="M92.3923 57.3709C91.9345 56.8264 91.2589 56.5103 90.5466 56.5103H87.0567V11.8068C87.0567 8.60512 84.4516 6 81.2499 6H14.707C11.5053 6 8.90019 8.60512 8.90019 11.8068V56.5112H5.40934C4.6971 56.5112 4.02149 56.8264 3.56369 57.3719C3.10589 57.9174 2.91313 58.6373 3.0365 59.339L4.38773 64.0088C4.59012 65.1605 5.5915 66 6.76058 66H89.1944C90.3635 66 91.3649 65.1605 91.5673 64.0088L92.9185 59.339C93.0428 58.6373 92.8501 57.9174 92.3923 57.3709Z" stroke="#417BBE" stroke-width="3" stroke-linejoin="round"/>
<path d="M87.0569 56.5103V11.8068C87.0569 8.60512 84.4518 6 81.2501 6H14.7072C11.5055 6 8.90039 8.60512 8.90039 11.8068" stroke="#80BFE9" stroke-width="3" stroke-linecap="round" stroke-linejoin="round"/>
<path d="M9 56.5H87" stroke="#4D7DBF" stroke-width="3" stroke-linecap="round"/>
<path d="M8.90019 33.5C8.90019 38.6822 8.90019 46.3526 8.90019 56.5112H5.40934C4.6971 56.5112 4.02149 56.8264 3.56369 57.3719C3.10589 57.9174 2.91313 58.6373 3.0365 59.339L4.38773 64.0088C4.59012 65.1605 5.5915 66 6.76058 66C20.8362 66 31.416 66 38.5 66" stroke="#1E5686" stroke-width="3" stroke-linecap="round" stroke-linejoin="round"/>
<path fill-rule="evenodd" clip-rule="evenodd" d="M87.2055 57.9853C86.3845 58.1004 85.6285 57.5262 85.5144 56.706C85.4004 55.8849 85.9735 55.1277 86.7945 55.0147C87.6145 54.8996 88.3715 55.4738 88.4855 56.294C88.5996 57.1141 88.0265 57.8723 87.2055 57.9853Z" fill="#001928"/>
</svg>