<?xml version="1.0" encoding="UTF-8"?>
<svg width="92px" height="32px" viewBox="0 0 209 72" version="1.1" xmlns="http://www.w3.org/2000/svg" xmlns:xlink="http://www.w3.org/1999/xlink">
    <title>Logo/Master-Reverse</title>
    <g id="Logo/Master-Reverse" stroke="none" stroke-width="1" fill="none" fill-rule="evenodd">
        <g id="BMO-MB_2R" transform="translate(0.5, 0.000000)" fill-rule="nonzero">
            <path d="M22.03,28 C22.03,31.76 20.31,33.84 15.78,33.84 L11.91,33.84 L11.91,22.35 C12.4,22.3 14.04,22.27 14.53,22.27 L15.85,22.27 C20.47,22.27 22.03,24.23 22.03,28 Z M31.23,43 C31.23,37.07 26.39,34.92 20.52,34.79 L20.52,34.57 C25.52,34.16 29.61,32.07 29.61,27.03 C29.61,21.42 24.97,20.37 19.78,20.37 C13.54,20.37 6.22,20.54 1.42108547e-14,20.37 L1.42108547e-14,22.3 C1.31,22.21 4.51,22.39 4.51,24.04 L4.51,47.92 C4.51,49.52 1.23,49.74 1.42108547e-14,49.74 L1.42108547e-14,51.62 C6,51.46 13.15,51.62 19.2,51.62 C25.56,51.62 31.23,49.47 31.23,43 Z M23.23,42.39 C23.23,47.3 21.52,49.63 15.58,49.63 L11.88,49.63 L11.88,35.87 L15.82,35.87 C21.25,35.87 23.26,37.7 23.26,42.35 L23.23,42.39 Z" id="Shape" fill="#FFFFFF"></path>
            <path d="M71.48,51.57 C68.68,51.57 65.89,51.57 63.1,51.62 L63.1,49.7 C64.37,49.7 67.89,49.63 67.89,47.92 L67.89,25.74 L67.79,25.74 L55.17,52 L53.65,52 L41.34,25.69 L41.25,25.69 L41.25,47.92 C41.25,49.67 44.74,49.7 46.06,49.7 L46.12,51.62 C42.63,51.51 37.87,51.43 34.44,51.62 L34.44,49.7 C35.77,49.7 38.77,49.59 38.77,47.92 L38.77,24 C38.77,22.37 35.67,22.23 34.44,22.23 L34.44,20.3 C38.44,20.47 42.68,20.47 46.65,20.3 L57.17,42.49 L67.94,20.38 C71.76,20.55 76.08,20.5 79.94,20.33 L79.94,22.26 C78.67,22.26 75.34,22.35 75.34,24.03 L75.34,47.92 C75.34,49.63 78.63,49.7 79.94,49.7 L79.94,51.62 C77.11,51.54 74.27,51.57 71.48,51.57 Z" id="Path" fill="#FFFFFF"></path>
            <path d="M109.32,35.94 C109.32,41.94 108.73,50.23 99.87,50.23 C91.01,50.23 90.37,41.9 90.37,35.94 C90.37,29.98 91.01,21.71 99.87,21.71 C108.73,21.71 109.32,30 109.32,35.94 Z M117.6,35.94 C117.6,25.59 111.28,19.78 99.87,19.78 C88.46,19.78 82.08,25.54 82.08,35.94 C82.08,46.34 88.41,52.14 99.87,52.14 C111.33,52.14 117.6,46.35 117.6,35.94 Z" id="Shape" fill="#FFFFFF"></path>
            <path d="M170.59,0 C150.707749,0 134.59,16.117749 134.59,36 C134.59,55.882251 150.707749,72 170.59,72 C190.472251,72 206.59,55.882251 206.59,36 C206.59,16.117749 190.472251,0 170.59,0 Z" id="Path" fill="#ED1C24"></path>
            <path d="M169.49,25 L163.24,16.85 C162.976665,16.5028122 162.565757,16.2992088 162.13,16.3 C161.70683,16.2976313 161.307034,16.4938271 161.05,16.83 L153.61,26.2 L153.61,40.9 L161.03,31.41 C161.302572,31.0633019 161.718985,30.8606231 162.16,30.86 C162.606598,30.8584097 163.028295,31.065559 163.3,31.42 L169.58,39.63 C169.820682,39.9419108 170.186432,40.1321005 170.58,40.15 C170.974673,40.1362572 171.342086,39.9452027 171.58,39.63 L177.86,31.42 C178.134645,31.0691639 178.554458,30.8629399 179,30.86 C179.44206,30.8560515 179.860382,31.0596594 180.13,31.41 L187.53,40.89 L187.53,26.19 L180.09,16.82 C179.828823,16.4834822 179.425972,16.2876005 179,16.2899782 C178.56532,16.2937702 178.156312,16.4964317 177.89,16.84 L171.69,25 C171.428755,25.34309 171.021219,25.5431533 170.59,25.54 C170.159846,25.5385487 169.754237,25.3394316 169.49,25 Z M187.58,51.67 L153.58,51.67 L153.58,51.67 L153.58,51.67 L153.58,40.89 L187.58,40.89 L187.58,40.89 L187.58,40.89 L187.58,51.67 Z" id="Shape" fill="#FFFFFF"></path>
        </g>
    </g>
</svg>
