<svg width="290" height="272" viewBox="0 0 290 272" fill="none" xmlns="http://www.w3.org/2000/svg">
<path d="M281.35 128.691H189.822C185.354 128.691 181.652 132.393 181.652 136.861V165.455C181.652 169.923 185.354 173.625 189.822 173.625V173.625C214.005 173.625 228.979 199.142 208.689 212.3C194.782 221.318 177.937 226.275 159.312 225.58C134.972 224.671 112.948 213.854 97.2254 197.047C91.7737 191.219 96.441 182.561 104.421 182.561V182.561C108.889 182.561 112.591 178.859 112.591 174.391V167.498C112.591 163.03 108.889 159.328 104.421 159.328H96.6745C84.5122 159.328 73.3325 151.185 72.8906 139.031V139.031V139.031C72.4605 126.56 83.6424 117.713 96.1209 117.713H104.549C109.017 117.713 112.719 114.011 112.719 109.543V102.649C112.719 98.1815 109.017 94.4795 104.549 94.4795V94.4795C94.5758 94.4795 88.3831 83.9715 94.926 76.4448C111.429 57.4605 135.735 45.4603 162.887 45.4603C191.481 45.4603 217.012 58.864 233.48 79.6716C236.288 83.2459 241.777 83.6289 244.841 80.1822L266.925 56.5662C268.84 54.5237 268.967 51.3324 267.18 49.1623C241.905 18.6529 203.608 -0.622892 160.717 0.015379C110.596 0.881388 66.7184 29.4702 43.9508 71.0691C36.6098 84.4819 23.4602 94.6072 8.16987 94.6072V94.6072C3.70197 94.6072 0 98.3091 0 102.777V109.543C0 114.011 3.70197 117.713 8.16987 117.713H14.1177C21.8554 117.713 27.7769 124.53 27.5733 132.265V132.265C27.52 134.184 27.5112 136.097 27.5446 138.004C27.7407 149.2 19.3678 159.328 8.16987 159.328V159.328C3.70197 159.328 0 163.03 0 167.498V174.391C0 178.859 3.70197 182.561 8.16987 182.561V182.561C24.8193 182.561 39.2424 193.265 48.0795 207.376C72.0385 245.632 114.509 271.025 162.887 271.025C263.223 271.025 289.52 184.986 289.52 165.455V136.861C289.52 132.393 285.818 128.691 281.35 128.691Z" fill="#C48A00"/>
</svg>
