<svg xmlns="http://www.w3.org/2000/svg" xmlns:xlink="http://www.w3.org/1999/xlink" width="88px" height="28px" viewBox="0 0 88 28" version="1.1">
    <!-- Generator: Sketch 55.2 (78181) - https://sketchapp.com -->
    <title>visa</title>
    <desc>Created with Sketch.</desc>
    <g id="payment-method-icon-set" stroke="none" stroke-width="1" fill="none" fill-rule="evenodd">
        <g id="Styled---light" transform="translate(-600.000000, -351.000000)">
            <g id="visa" transform="translate(513.523105, 311.484104)">
                <g id="card" transform="translate(0.068392, 0.515896)">
                    <rect x="0.0683918669" y="0.515895954" width="174" height="108"/>
                </g>
                <g id="logo" transform="translate(86.674677, 39.680636)">
                    <g id="registered" transform="translate(83.959407, 23.400288)" fill="#0161AB">
                        <path d="M0.2206933,1.55606209 C0.2206933,0.782825253 0.847818669,0.156154119 1.6209306,0.156154119 C2.3954133,0.156154119 3.0211679,0.782825253 3.0211679,1.55606209 C3.0211679,2.32861405 2.3954133,2.95597007 1.6209306,2.95597007 C0.847818669,2.95597007 0.2206933,2.32861405 0.2206933,1.55606209 L0.2206933,1.55606209 Z M1.6209306,2.61900592 C2.21035991,2.61900592 2.68601565,2.14300981 2.68601565,1.55606209 C2.68601565,0.967059717 2.21035991,0.492433383 1.6209306,0.492433383 C1.03424282,0.492433383 0.557901695,0.967059717 0.557901695,1.55606209 C0.557901695,2.14300981 1.03424282,2.61900592 1.6209306,2.61900592 L1.6209306,2.61900592 Z M1.4324503,2.16972039 L1.14596024,2.16972039 L1.14596024,0.940349144 L1.66548049,0.940349144 C1.77377099,0.940349144 1.88343226,0.941718917 1.97938587,1.00198893 C2.07876639,1.07184735 2.13496779,1.18759317 2.13496779,1.30950296 C2.13496779,1.44990469 2.05477799,1.58003312 1.92318447,1.62797518 L2.14799006,2.16972039 L1.82928701,2.16972039 L1.64286285,1.68276609 L1.4324503,1.68276609 L1.4324503,2.16972039 L1.4324503,2.16972039 Z M1.4324503,1.47250594 L1.59008837,1.47250594 C1.64971668,1.47250594 1.71345729,1.47798504 1.7655464,1.44990469 C1.81283782,1.4190848 1.8375116,1.36155433 1.8375116,1.30676341 C1.8375116,1.26156091 1.80872552,1.20676999 1.76828793,1.18279896 C1.71756959,1.15334884 1.63806517,1.15951282 1.58460531,1.15951282 L1.4324503,1.15951282 L1.4324503,1.47250594 L1.4324503,1.47250594 Z"/>
                    </g>
                    <path d="M77.2680636,26.4438623 L76.4748682,22.6078395 L67.8690289,22.6078395 L66.4582899,26.4438623 L59.4034902,26.4438623 L69.4973995,2.53759223 C69.4973995,2.53759223 70.1105241,0.613544143 72.6237827,0.613544143 L78.0645732,0.613544143 L83.4832692,26.4438623 L77.2680636,26.4438623 Z M69.8199804,17.3076522 L75.3778722,17.3076522 L73.3761032,7.63911849 L69.8199804,17.3076522 Z" id="a" fill="#FFFFFF"/>
                    <path d="M59.9315507,6.82471821 L60.8981886,1.27757671 C60.8981886,1.27757671 57.9165249,0.15146528 54.8100268,0.15146528 C51.4505458,0.15146528 43.4732974,1.61014178 43.4732974,8.70266817 C43.4732974,15.3770187 52.8369808,15.4604343 52.8369808,18.9627946 C52.8369808,22.4673499 44.4388306,21.8417325 41.6659607,19.6312174 L40.6606572,25.4297035 C40.6606572,25.4297035 43.6820912,26.8894776 48.302068,26.8894776 C52.9198355,26.8894776 59.8906757,24.5121312 59.8906757,18.0463199 C59.8906757,11.3302615 50.4430329,10.7035465 50.4430329,7.78399832 C50.4430329,4.86335259 57.0360559,5.23872307 59.9315507,6.82471821" id="s" fill="#FFFFFF"/>
                    <polyline id="i" fill="#FFFFFF" points="36.4892004 26.4438623 29.7205255 26.4438623 33.950533 0.613544143 40.7214173 0.613544143 36.4892004 26.4438623"/>
                    <path d="M24.0256473,0.613544143 L31.3113353,0.613544143 L20.5413319,26.4438623 L13.4887416,26.4438623 L7.60937366,4.00285418 C3.79032535,1.72428953 0.528060484,1.05037879 0.526955755,1.05037879 L0.651790137,0.613544143 L11.3201585,0.613544143 C14.2565283,0.613544143 14.5305011,2.9393045 14.5305011,2.9393045 L16.8084524,14.5549354 L16.8084524,14.5538378 L17.5729249,18.3799825 L24.0256473,0.613544143 Z M16.8084524,14.5549354 C16.8084524,14.5549354 15.277298,9.84304808 10.5744664,6.06080636 C5.65621271,2.10624546 0.528060484,1.05037879 0.526955755,1.05037879 L0.651790137,0.613544143 L11.3201585,0.613544143 C14.2565283,0.613544143 14.5305011,2.9393045 14.5305011,2.9393045 L16.8084524,14.5549354 Z" id="v" fill="#FFFFFF"/>
                    <path d="M16.8084524,14.5549354 L14.5305011,2.9393045 C14.5305011,2.9393045 14.2565283,0.613544143 11.3201585,0.613544143 L0.651790137,0.613544143 L0.526955755,1.05037879 C0.528060484,1.05037879 5.65621271,2.10624546 10.5744664,6.06080636 C15.277298,9.84304808 16.8084524,14.5549354 16.8084524,14.5549354" id="shape" fill="#F9A533"/>
                </g>
            </g>
        </g>
    </g>
</svg>