<svg width="48" height="48" view-box="0 0 48 48" fill="none" xmlns="http://www.w3.org/2000/svg">
  <path d="M39 26.9509H38.5V21.4509C38.5 20.8986 38.0523 20.4509 37.5 20.4509H37.42L38.99 18.2409C39.4106 17.6998 39.5957 17.0121 39.5035 16.333C39.4114 15.6538 39.0497 15.0403 38.5 14.6309L31.37 9.63092L28.2 7.41092L26.82 6.41091C26.2563 6.02282 25.5506 5.90215 24.89 6.08092C24.2371 6.26243 23.6722 6.67458 23.3 7.24091L14.05 20.4509H8C7.44772 20.4509 7 20.8986 7 21.4509V41.4509C7 42.0032 7.44772 42.4509 8 42.4509H37.5C38.0523 42.4509 38.5 42.0032 38.5 41.4509V35.9509H39C39.5523 35.9509 40 35.5032 40 34.9509V27.9509C40 27.3986 39.5523 26.9509 39 26.9509ZM38 28.9509V33.9509H30C28.92 33.9509 28 33.3409 28 32.6209V30.2409C28 29.5209 28.92 28.9109 30 28.9109L38 28.9509ZM37.35 17.0509L34.98 20.4509H25.05L31.05 11.8509L37.38 16.2409C37.5 16.3809 37.57 16.7409 37.35 17.0509ZM29.42 10.7109L22.61 20.4509H20.3L27.87 9.62091L29.42 10.7109ZM24.94 8.37091C25.0428 8.21426 25.1993 8.10049 25.38 8.05091C25.4693 8.01196 25.5707 8.01196 25.66 8.05091L26.23 8.44091L17.86 20.4409H16.5L24.94 8.37091ZM36.5 22.4509V26.9509H30C27.79 26.9509 26 28.4509 26 30.2809V32.6209C26 34.4509 27.79 35.9509 30 35.9509H36.5V40.4509H9V22.4509H36.5ZM31.5 30.4509C32.0523 30.4509 32.5 30.8986 32.5 31.4509C32.5 32.0032 32.0523 32.4509 31.5 32.4509C30.9477 32.4509 30.5 32.0032 30.5 31.4509C30.5 30.8986 30.9477 30.4509 31.5 30.4509Z" fill="#CCE4F3"/>
</svg>